<svg xmlns="http://www.w3.org/2000/svg" viewBox="0 0 362 244"><defs><style>.cls-1,.cls-4,.cls-5,.cls-6{fill:none;}.cls-2{fill:#dbdbdb;}.cls-3{fill:#eaeaea;}.cls-4,.cls-6{stroke:#87badd;}.cls-4,.cls-5,.cls-6{stroke-linecap:round;stroke-miterlimit:10;}.cls-4{stroke-width:5px;}.cls-5{stroke:#67a7d6;stroke-width:6px;}.cls-6{stroke-width:4px;}</style></defs><title>BrokenClouds</title><g id="Layer_2" data-name="Layer 2"><g id="Layer_1-2" data-name="Layer 1"><rect class="cls-1" width="362" height="244"/><path class="cls-2" d="M309.5,139.89c13-7.37,20.78-20,18.89-29.37-2.41-12-21.51-23.31-43.84-14.88,6.62-12.32,7-26.69.72-35.48-9-12.59-32.47-14.78-48.83,2.67C235.72,44.1,221,29.54,204.36,30c-15.57.45-28.93,13.89-30.3,31.28-.71-.51-17.38-12.13-33.51-3.81-14.39,7.42-22.1,27.5-16,46.92-9.37-4.21-20.3-.24-25.31,9.16s-2.69,21.33,5.34,27.85a71.7,71.7,0,0,0,39.21,9.15A71,71,0,0,0,173,142.18c3.85,3.57,15.09,13,31.72,14.12,25.18,1.65,41.64-17.23,43.84-19.84a55.42,55.42,0,0,0,28.87,11.06A54.73,54.73,0,0,0,309.5,139.89Z"/><path class="cls-3" d="M45.49,157.78c-9.73-10.09-8.42-24.31,2-32.44,11.64-9.1,32-8.46,43.46,2.57-3-15.86,2.95-31,15-36.61,16.78-7.81,49.13,1,62.43,27.94,19.48-11.17,54-11,60.06,6.74,7.12,20.88-3.95,30.19-26.08,34.05,19,14.77,21.34,31.79,5.14,40.47-15.56,8.32-45.43-1.3-50.58-16.71-6,16.55-23.33,28.15-42.28,28.91-23.82,1-46.84-15.34-49-37.9-8.85,7.81-21.91,7.13-26.48,2.57C34.91,173.13,36.19,163.68,45.49,157.78Z"/><line class="cls-4" x1="108.09" y1="41.81" x2="19.09" y2="41.81"/><line class="cls-5" x1="294.59" y1="22.31" x2="339.59" y2="22.31"/><line class="cls-5" x1="172.59" y1="224.31" x2="334.59" y2="224.31"/><line class="cls-6" x1="308.59" y1="171.31" x2="240.09" y2="171.81"/><line class="cls-5" x1="20.59" y1="90.31" x2="65.59" y2="90.31"/></g></g></svg>