<svg xmlns="http://www.w3.org/2000/svg" viewBox="0 0 362 244"><defs><style>.cls-1,.cls-4,.cls-5,.cls-6,.cls-7,.cls-8{fill:none;}.cls-2{fill:#e5bb0a;}.cls-3{fill:#eaeaea;}.cls-4,.cls-8{stroke:#87badd;}.cls-4,.cls-5,.cls-6,.cls-7,.cls-8{stroke-linecap:round;stroke-miterlimit:10;}.cls-4,.cls-6{stroke-width:5px;}.cls-5,.cls-6,.cls-7{stroke:#67a7d6;}.cls-5{stroke-width:6px;}.cls-7,.cls-8{stroke-width:4px;}</style></defs><title>FewClouds</title><g id="Layer_2" data-name="Layer 2"><g id="Layer_1-2" data-name="Layer 1"><rect class="cls-1" width="362" height="244"/><circle class="cls-2" cx="206.18" cy="101.12" r="63.5"/><path class="cls-3" d="M245.63,183.71c11.58-6.56,18.47-17.76,16.8-26.12-2.15-10.71-19.14-20.73-39-13.23,5.88-11,6.23-23.73.63-31.54-8-11.19-28.87-13.15-43.42,2.37C180,98.54,167,85.59,152.14,86c-13.84.4-25.72,12.34-26.94,27.81-.63-.45-15.45-10.78-29.78-3.39-12.8,6.6-19.66,24.46-14.27,41.72-8.32-3.75-18-.22-22.5,8.14s-2.38,19,4.76,24.76a62.36,62.36,0,0,0,60.84.68c3.43,3.18,13.42,11.58,28.21,12.55,22.39,1.48,37-15.31,39-17.63a49.3,49.3,0,0,0,25.67,9.83A48.73,48.73,0,0,0,245.63,183.71Z"/><line class="cls-4" x1="109.09" y1="75.81" x2="20.09" y2="75.81"/><line class="cls-5" x1="103.59" y1="22.31" x2="148.59" y2="22.31"/><line class="cls-6" x1="252.09" y1="204.81" x2="341.09" y2="204.81"/><line class="cls-7" x1="20.09" y1="223.81" x2="74.59" y2="223.81"/><line class="cls-8" x1="341.59" y1="51.81" x2="287.09" y2="51.81"/></g></g></svg>