<svg xmlns="http://www.w3.org/2000/svg" viewBox="0 0 362 244"><defs><style>.cls-1,.cls-3,.cls-4,.cls-5,.cls-6{fill:none;}.cls-2{fill:#eaeaea;}.cls-3,.cls-5{stroke:#87badd;}.cls-3,.cls-4,.cls-5,.cls-6{stroke-linecap:round;stroke-miterlimit:10;}.cls-3,.cls-4{stroke-width:5px;}.cls-4,.cls-6{stroke:#67a7d6;}.cls-5,.cls-6{stroke-width:6px;}</style></defs><title>ScatteredClouds</title><g id="Layer_2" data-name="Layer 2"><g id="Layer_1-2" data-name="Layer 1"><rect class="cls-1" width="362" height="244"/><path class="cls-2" d="M311.63,121.71c11.58-6.56,18.47-17.76,16.8-26.12-2.15-10.71-19.14-20.73-39-13.23,5.88-11,6.23-23.73.63-31.54-8-11.19-28.87-13.15-43.42,2.37C246,36.54,233,23.59,218.14,24c-13.84.4-25.72,12.34-26.94,27.81-.63-.45-15.45-10.78-29.78-3.39-12.8,6.6-19.66,24.46-14.27,41.72-8.32-3.75-18-.22-22.5,8.14s-2.38,19,4.76,24.76a62.36,62.36,0,0,0,60.84.68c3.43,3.18,13.42,11.58,28.21,12.55,22.39,1.48,37-15.31,39-17.63a49.3,49.3,0,0,0,25.67,9.83A48.73,48.73,0,0,0,311.63,121.71Z"/><path class="cls-2" d="M42.72,169.37c-6.62-6.86-5.72-16.53,1.35-22.06,7.91-6.19,21.74-5.75,29.55,1.75-2-10.79,2-21.08,10.21-24.9,11.41-5.31,33.41.72,42.46,19,13.25-7.59,36.73-7.47,40.84,4.59,4.84,14.19-2.69,20.53-17.73,23.15,12.89,10,14.51,21.62,3.49,27.51-10.58,5.67-30.89-.88-34.39-11.35-4.07,11.25-15.87,19.13-28.75,19.65-16.2.65-31.86-10.43-33.32-25.77-6,5.31-14.9,4.85-18,1.75C35.53,179.8,36.4,173.38,42.72,169.37Z"/><line class="cls-3" x1="148.09" y1="19.81" x2="59.09" y2="19.81"/><line class="cls-4" x1="154.09" y1="223.81" x2="243.09" y2="223.81"/><line class="cls-5" x1="225.59" y1="165.31" x2="343.59" y2="165.31"/><line class="cls-6" x1="20.59" y1="98.31" x2="65.59" y2="98.31"/></g></g></svg>