<svg xmlns="http://www.w3.org/2000/svg" viewBox="0 0 362 244"><defs><style>.cls-1{fill:none;}.cls-2{fill:#eaeaea;}.cls-3{fill:#dbdbdb;}.cls-4{fill:#67a7d6;}.cls-5{fill:#18638c;}</style></defs><title>Showers</title><g id="Layer_2" data-name="Layer 2"><g id="Layer_1-2" data-name="Layer 1"><rect class="cls-1" width="362" height="244" transform="translate(362 244) rotate(-180)"/><path class="cls-2" d="M334.53,80.56c8.59-8.88,7.43-21.42-1.74-28.58-10.26-8-28.17-7.46-38.3,2.26,2.63-14-2.6-27.32-13.24-32.26-14.78-6.88-43.29.92-55,24.62-17.16-9.84-47.61-9.68-52.93,5.94-6.27,18.4,3.48,26.61,23,30-16.71,13-18.8,28-4.52,35.66,13.71,7.34,40-1.14,44.57-14.72,5.27,14.58,20.56,24.8,37.26,25.47,21,.85,41.29-13.52,43.18-33.39,7.8,6.87,19.31,6.28,23.34,2.26C343.86,94.09,342.73,85.76,334.53,80.56Z"/><path class="cls-3" d="M38,145.9c-11.95-6.43-19.07-17.42-17.34-25.63,2.22-10.51,19.75-20.35,40.24-13-6.07-10.75-6.43-23.29-.66-31,8.27-11,29.8-12.9,44.82,2.33C105.72,62.3,119.21,49.6,134.51,50c14.28.39,26.55,12.12,27.8,27.3.65-.45,15.95-10.59,30.75-3.33,13.21,6.48,20.29,24,14.72,41a18.4,18.4,0,0,1,23.23,8,19.1,19.1,0,0,1-4.91,24.3,67.38,67.38,0,0,1-62.81.67,49.27,49.27,0,0,1-29.11,12.32c-23.11,1.44-38.21-15-40.24-17.31a51.75,51.75,0,0,1-55.93,3Z"/><path class="cls-4" d="M255.08,141.14c4.82,0,4.83-7.5,0-7.5s-4.84,7.5,0,7.5Z"/><path class="cls-4" d="M284.92,144c4.82,0,4.83-7.5,0-7.5s-4.84,7.5,0,7.5Z"/><path class="cls-4" d="M311.53,130.35c4.82,0,4.83-7.5,0-7.5s-4.84,7.5,0,7.5Z"/><path class="cls-4" d="M320.15,117.41c4.83,0,4.84-7.5,0-7.5s-4.83,7.5,0,7.5Z"/><path class="cls-4" d="M338.49,154.44c4.83,0,4.84-7.5,0-7.5s-4.83,7.5,0,7.5Z"/><path class="cls-4" d="M302.18,164.15c4.82,0,4.83-7.5,0-7.5s-4.84,7.5,0,7.5Z"/><path class="cls-4" d="M262.27,162c4.82,0,4.83-7.5,0-7.5s-4.84,7.5,0,7.5Z"/><path class="cls-4" d="M284.56,180c4.82,0,4.83-7.5,0-7.5s-4.84,7.5,0,7.5Z"/><path class="cls-4" d="M320.15,151.21c4.83,0,4.84-7.5,0-7.5s-4.83,7.5,0,7.5Z"/><path class="cls-4" d="M329.86,168.82c4.83,0,4.84-7.5,0-7.5s-4.83,7.5,0,7.5Z"/><path class="cls-4" d="M244.24,165c4.83,0,4.84-7.5,0-7.5s-4.83,7.5,0,7.5Z"/><path class="cls-4" d="M237.46,120.28c4.82,0,4.83-7.5,0-7.5s-4.84,7.5,0,7.5Z"/><path class="cls-4" d="M334.18,127.83c4.82,0,4.83-7.5,0-7.5s-4.84,7.5,0,7.5Z"/><path class="cls-5" d="M64.51,184.67c5.79,0,5.8-9,0-9s-5.8,9,0,9Z"/><path class="cls-5" d="M106.94,196.18c5.79,0,5.8-9,0-9s-5.8,9,0,9Z"/><path class="cls-5" d="M61.28,214.88c5.79,0,5.8-9,0-9s-5.8,9,0,9Z"/><path class="cls-5" d="M127.79,205.89c5.8,0,5.81-9,0-9s-5.8,9,0,9Z"/><path class="cls-5" d="M147.57,183.24c5.79,0,5.8-9,0-9s-5.8,9,0,9Z"/><path class="cls-5" d="M179.21,194.74c5.79,0,5.8-9,0-9s-5.8,9,0,9Z"/><path class="cls-5" d="M170.22,213.44c5.79,0,5.8-9,0-9s-5.8,9,0,9Z"/><path class="cls-5" d="M36.83,204.09c5.79,0,5.8-9,0-9s-5.8,9,0,9Z"/><path class="cls-5" d="M30.72,177.48c5.79,0,5.8-9,0-9s-5.8,9,0,9Z"/><path class="cls-5" d="M199.7,178.92c5.8,0,5.81-9,0-9s-5.8,9,0,9Z"/><path class="cls-5" d="M201.14,214.16c5.79,0,5.8-9,0-9s-5.8,9,0,9Z"/><path class="cls-5" d="M148.29,228.18c5.79,0,5.8-9,0-9s-5.8,9,0,9Z"/><path class="cls-5" d="M103.35,226.38c5.79,0,5.8-9,0-9s-5.81,9,0,9Z"/><path class="cls-5" d="M22.45,227.1c5.79,0,5.8-9,0-9s-5.8,9,0,9Z"/><path class="cls-5" d="M77.82,201.57c5.79,0,5.8-9,0-9s-5.8,9,0,9Z"/><path class="cls-5" d="M97.59,167.42c5.79,0,5.8-9,0-9s-5.8,9,0,9Z"/><path class="cls-5" d="M44,160.94c5.79,0,5.8-9,0-9s-5.8,9,0,9Z"/><path class="cls-5" d="M163.39,162.38c5.79,0,5.8-9,0-9s-5.8,9,0,9Z"/><path class="cls-5" d="M126,178.56c5.79,0,5.8-9,0-9s-5.8,9,0,9Z"/><path class="cls-5" d="M75.3,166c5.79,0,5.8-9,0-9s-5.8,9,0,9Z"/><path class="cls-5" d="M76,226.74c5.79,0,5.8-9,0-9s-5.8,9,0,9Z"/><path class="cls-5" d="M109.46,209.84c5.79,0,5.8-9,0-9s-5.8,9,0,9Z"/><path class="cls-5" d="M150.81,204.09c5.79,0,5.8-9,0-9s-5.8,9,0,9Z"/><path class="cls-5" d="M176.33,176.76c5.8,0,5.8-9,0-9s-5.8,9,0,9Z"/><path class="cls-5" d="M214.45,163.46c5.79,0,5.8-9,0-9s-5.8,9,0,9Z"/><path class="cls-5" d="M210.49,194c5.79,0,5.8-9,0-9s-5.8,9,0,9Z"/></g></g></svg>