<svg xmlns="http://www.w3.org/2000/svg" viewBox="0 0 362 244"><defs><style>.cls-1{fill:#87badd;}.cls-2{fill:#b8e6f4;}.cls-3{fill:#67a7d6;}.cls-4{fill:none;}.cls-5{fill:#aacee8;}</style></defs><title>Snow</title><g id="Layer_2" data-name="Layer 2"><g id="Layer_1-2" data-name="Layer 1"><polygon class="cls-1" points="136.34 45.35 180.56 68.24 224.78 45.35 227.06 95.09 268.99 121.93 227.06 148.78 224.78 198.52 180.56 175.62 136.34 198.52 134.06 148.78 92.13 121.93 134.06 95.09 136.34 45.35"/><polygon class="cls-2" points="180.56 33.5 207.41 75.43 257.14 77.72 234.25 121.93 257.14 166.15 207.41 168.43 180.56 210.36 153.72 168.43 103.98 166.15 126.87 121.93 103.98 77.72 153.72 75.43 180.56 33.5"/><polygon class="cls-3" points="180.5 52.5 188 109.51 241.12 87.5 195.5 122.5 241.12 157.5 188 135.49 180.5 192.5 173 135.49 119.88 157.5 165.5 122.5 119.88 87.5 173 109.51 180.5 52.5"/><path class="cls-3" d="M315.35,158.5c.88-3.25,1.94-6.42,3.07-9.56s2.36-6.25,3.61-9.34,2.61-6.14,4-9.16,2.9-6,4.58-8.94c-.87,3.25-1.94,6.42-3.07,9.56s-2.35,6.25-3.61,9.34-2.61,6.14-4,9.16S317,155.58,315.35,158.5Z"/><path class="cls-3" d="M315.35,121.5c1.68,2.92,3.16,5.91,4.58,8.94s2.74,6.08,4,9.16,2.49,6.19,3.61,9.34,2.2,6.31,3.07,9.56c-1.68-2.92-3.16-5.91-4.58-8.94s-2.75-6.08-4-9.16-2.49-6.19-3.61-9.34S316.23,124.75,315.35,121.5Z"/><path class="cls-3" d="M304.5,132.35c3.25.88,6.42,1.94,9.56,3.07s6.25,2.36,9.34,3.61,6.14,2.61,9.16,4,6,2.9,8.94,4.58c-3.25-.87-6.42-1.94-9.56-3.07s-6.25-2.35-9.34-3.61-6.14-2.61-9.16-4S307.42,134,304.5,132.35Z"/><path class="cls-3" d="M304.5,147.65c2.92-1.68,5.91-3.16,8.94-4.58s6.08-2.74,9.16-4,6.19-2.49,9.34-3.61,6.31-2.2,9.56-3.07c-2.92,1.68-5.91,3.16-8.94,4.58s-6.08,2.75-9.16,4-6.19,2.49-9.34,3.61S307.75,146.77,304.5,147.65Z"/><path class="cls-3" d="M286.68,82.5c1.47-5.44,3.25-10.76,5.15-16,.92-2.65,1.95-5.24,2.93-7.86l3.12-7.79,3.29-7.71c1.16-2.55,2.25-5.12,3.47-7.64,2.38-5.07,4.87-10.09,7.68-15-1.46,5.45-3.25,10.76-5.15,16-.91,2.65-1.95,5.24-2.93,7.86l-3.12,7.79-3.29,7.71c-1.16,2.55-2.26,5.12-3.48,7.64C292,72.59,289.49,77.61,286.68,82.5Z"/><path class="cls-3" d="M286.68,20.5c2.81,4.89,5.3,9.91,7.67,15,1.22,2.52,2.32,5.09,3.48,7.64l3.29,7.71,3.12,7.79c1,2.62,2,5.21,2.93,7.86,1.9,5.26,3.69,10.57,5.15,16-2.81-4.89-5.3-9.91-7.68-15-1.22-2.52-2.31-5.09-3.47-7.64l-3.29-7.71-3.12-7.79c-1-2.62-2-5.21-2.93-7.86C289.93,31.26,288.15,25.94,286.68,20.5Z"/><path class="cls-3" d="M268.5,38.68c5.44,1.47,10.76,3.25,16,5.15,2.65.92,5.24,2,7.86,2.93l7.79,3.12,7.71,3.29c2.55,1.16,5.12,2.25,7.64,3.47,5.07,2.38,10.09,4.87,15,7.68-5.45-1.46-10.76-3.25-16-5.15-2.65-.91-5.24-2-7.86-2.93l-7.79-3.12-7.71-3.29c-2.55-1.16-5.12-2.26-7.64-3.48C278.41,44,273.39,41.49,268.5,38.68Z"/><path class="cls-3" d="M268.5,64.32c4.89-2.81,9.91-5.3,15-7.67,2.52-1.22,5.09-2.32,7.64-3.48l7.71-3.29,7.79-3.12c2.62-1,5.21-2,7.86-2.93,5.26-1.9,10.57-3.69,16-5.15-4.89,2.81-9.91,5.3-15,7.68-2.52,1.22-5.09,2.31-7.64,3.47l-7.71,3.29-7.79,3.12c-2.62,1-5.21,2-7.86,2.93C279.26,61.07,273.94,62.85,268.5,64.32Z"/><path class="cls-3" d="M34.37,202.88c1.23-4.37,2.72-8.64,4.3-12.87s3.28-8.41,5-12.57l2.73-6.19c1-2,1.86-4.1,2.87-6.13,2-4.06,4-8.09,6.33-12-1.23,4.38-2.72,8.64-4.3,12.87-.76,2.13-1.63,4.21-2.44,6.32l-2.59,6.25c-1.8,4.13-3.63,8.26-5.61,12.31S36.68,199,34.37,202.88Z"/><path class="cls-3" d="M35,152.87c2.21,4,4.17,8,6,12.16s3.61,8.27,5.31,12.44l2.45,6.31c.76,2.13,1.57,4.23,2.29,6.37,1.48,4.27,2.87,8.57,4,13-2.22-4-4.18-8-6-12.16-1-2-1.82-4.13-2.73-6.19l-2.58-6.25c-1.65-4.2-3.27-8.41-4.73-12.69S36.09,157.28,35,152.87Z"/><path class="cls-3" d="M20.12,167.37c4.37,1.23,8.64,2.72,12.87,4.3s8.41,3.28,12.57,5l6.19,2.73c2,.95,4.1,1.86,6.13,2.87,4.06,2,8.09,4,12,6.33-4.38-1.23-8.64-2.72-12.87-4.3-2.13-.76-4.21-1.63-6.32-2.44l-6.25-2.59c-4.13-1.8-8.26-3.63-12.31-5.61S24,169.68,20.12,167.37Z"/><path class="cls-3" d="M19.87,188c4-2.21,8.05-4.17,12.16-6s8.27-3.61,12.44-5.31l6.31-2.45c2.13-.76,4.23-1.57,6.37-2.29,4.27-1.48,8.57-2.87,13-4-4,2.22-8,4.18-12.16,6-2,1-4.13,1.82-6.19,2.73l-6.25,2.58c-4.2,1.65-8.41,3.27-12.69,4.73S24.28,186.91,19.87,188Z"/><rect class="cls-4" width="362" height="244"/><path class="cls-3" d="M59.35,82.5c.88-3.25,1.94-6.42,3.07-9.56S64.78,66.69,66,63.6s2.61-6.14,4-9.16,2.9-6,4.58-8.94c-.87,3.25-1.94,6.42-3.07,9.56S69.23,61.31,68,64.4s-2.61,6.14-4,9.16S61,79.58,59.35,82.5Z"/><path class="cls-3" d="M59.35,45.5c1.68,2.92,3.16,5.91,4.58,8.94s2.74,6.08,4,9.16,2.49,6.19,3.61,9.34,2.2,6.31,3.07,9.56c-1.68-2.92-3.16-5.91-4.58-8.94s-2.75-6.08-4-9.16-2.49-6.19-3.61-9.34S60.23,48.75,59.35,45.5Z"/><path class="cls-3" d="M48.5,56.35c3.25.88,6.42,1.94,9.56,3.07S64.31,61.78,67.4,63s6.14,2.61,9.16,4,6,2.9,8.94,4.58c-3.25-.87-6.42-1.94-9.56-3.07S69.69,66.23,66.6,65s-6.14-2.61-9.16-4S51.42,58,48.5,56.35Z"/><path class="cls-3" d="M48.5,71.65c2.92-1.68,5.91-3.16,8.94-4.58s6.08-2.74,9.16-4,6.19-2.49,9.34-3.61,6.31-2.2,9.56-3.07c-2.92,1.68-5.91,3.16-8.94,4.58s-6.08,2.75-9.16,4-6.19,2.49-9.34,3.61S51.75,70.77,48.5,71.65Z"/><path class="cls-3" d="M259.13,210.5c.61-2.28,1.36-4.51,2.15-6.72s1.66-4.39,2.54-6.56,1.83-4.32,2.84-6.44,2-4.23,3.22-6.28c-.62,2.28-1.37,4.51-2.16,6.72s-1.66,4.39-2.54,6.56-1.83,4.32-2.84,6.44S260.3,208.45,259.13,210.5Z"/><path class="cls-3" d="M259.13,184.5c1.17,2.05,2.22,4.16,3.21,6.28s1.93,4.28,2.84,6.44,1.75,4.35,2.54,6.56,1.54,4.44,2.16,6.72c-1.18-2.05-2.23-4.16-3.22-6.28s-1.93-4.28-2.84-6.44-1.75-4.35-2.54-6.56S259.74,186.78,259.13,184.5Z"/><path class="cls-3" d="M251.5,192.13c2.28.61,4.51,1.36,6.72,2.15s4.39,1.66,6.56,2.54,4.32,1.83,6.44,2.84,4.23,2,6.28,3.22c-2.28-.62-4.51-1.37-6.72-2.16s-4.39-1.66-6.56-2.54-4.32-1.83-6.44-2.84S253.55,193.3,251.5,192.13Z"/><path class="cls-3" d="M251.5,202.88c2.05-1.18,4.16-2.23,6.28-3.22s4.28-1.93,6.44-2.84,4.35-1.75,6.56-2.54,4.44-1.54,6.72-2.15c-2.05,1.17-4.16,2.22-6.28,3.21s-4.28,1.93-6.44,2.84-4.35,1.75-6.56,2.54S253.78,202.26,251.5,202.88Z"/><path class="cls-5" d="M32,115.11c5.79,0,5.8-9,0-9s-5.8,9,0,9Z"/><path class="cls-5" d="M28.75,37.45c5.79,0,5.8-9,0-9s-5.8,9,0,9Z"/><path class="cls-5" d="M115,40.69c5.79,0,5.8-9,0-9s-5.8,9,0,9Z"/><path class="cls-5" d="M245.56,24.51c5.79,0,5.8-9,0-9s-5.8,9,0,9Z"/><path class="cls-5" d="M335.08,223c5.8,0,5.8-9,0-9s-5.8,9,0,9Z"/><path class="cls-5" d="M154.26,222.29c5.8,0,5.8-9,0-9s-5.8,9,0,9Z"/><path class="cls-5" d="M76.21,226.21c5.79,0,5.8-9,0-9s-5.8,9,0,9Z"/><path class="cls-5" d="M93.47,151.79c5.79,0,5.8-9,0-9s-5.8,9,0,9Z"/><path class="cls-5" d="M29.2,223c5.79,0,5.8-9,0-9s-5.8,9,0,9Z"/><path class="cls-5" d="M314.59,108.64c5.79,0,5.8-9,0-9s-5.8,9,0,9Z"/><path class="cls-5" d="M76.44,28c5.79,0,5.8-9,0-9s-5.8,9,0,9Z"/><path class="cls-5" d="M190.54,25.58c5.8,0,5.81-9,0-9s-5.8,9,0,9Z"/><path class="cls-5" d="M329.4,83.19c5.79,0,5.8-9,0-9s-5.8,9,0,9Z"/><path class="cls-5" d="M299.7,182.61c5.79,0,5.8-9,0-9s-5.8,9,0,9Z"/><path class="cls-5" d="M215.35,216.51c5.8,0,5.8-9,0-9s-5.8,9,0,9Z"/></g></g></svg>