<svg xmlns="http://www.w3.org/2000/svg" viewBox="0 0 362 244"><defs><style>.cls-1{fill:none;}.cls-2{fill:#dbdbdb;}.cls-3{fill:#c9c9c9;}.cls-4{fill:#ffe600;}.cls-5{fill:#67a7d6;}.cls-6{fill:#18638c;}</style></defs><title>Thunderstorms</title><g id="Layer_2" data-name="Layer 2"><g id="Layer_1-2" data-name="Layer 1"><rect class="cls-1" width="362" height="244"/><path class="cls-2" d="M27.47,80.56C18.88,71.68,20,59.14,29.21,52c10.26-8,28.17-7.46,38.3,2.26-2.63-14,2.6-27.32,13.24-32.26,14.78-6.88,43.29.92,55,24.62,17.16-9.84,47.61-9.68,52.93,5.94,6.27,18.4-3.48,26.61-23,30,16.71,13,18.8,28,4.52,35.66-13.71,7.34-40-1.14-44.57-14.72-5.27,14.58-20.56,24.8-37.26,25.47-21,.85-41.29-13.52-43.18-33.39-7.8,6.87-19.31,6.28-23.34,2.26C18.14,94.09,19.27,85.76,27.47,80.56Z"/><path class="cls-3" d="M324,133.9c11.95-6.43,19.07-17.42,17.34-25.63-2.22-10.51-19.75-20.35-40.24-13,6.07-10.75,6.43-23.29.66-31-8.27-11-29.8-12.9-44.82,2.33C256.28,50.3,242.79,37.6,227.49,38c-14.28.39-26.55,12.12-27.8,27.3-.65-.45-15.95-10.59-30.75-3.33-13.21,6.48-20.29,24-14.72,40.95a18.4,18.4,0,0,0-23.23,8,19.1,19.1,0,0,0,4.91,24.3,67.38,67.38,0,0,0,62.81.67,49.27,49.27,0,0,0,29.11,12.32c23.11,1.44,38.21-15,40.24-17.31a51.75,51.75,0,0,0,55.93,3Z"/><polygon class="cls-4" points="270 136 260 161 285 179 272 216 309 170 280 156 270 136"/><polygon class="cls-4" points="41.23 110.45 21.59 146.19 51.58 165.79 41.95 204.46 72.46 155.9 36.66 144.87 41.23 110.45"/><polygon class="cls-4" points="193.89 140.23 224.18 170.43 179.38 189.69 179.81 220.5 162.04 181.92 206.71 167.84 193.89 140.23"/><path class="cls-5" d="M90.86,142.35c2.9,0,2.9-4.5,0-4.5s-2.9,4.5,0,4.5Z"/><path class="cls-5" d="M109.74,137c2.89,0,2.9-4.5,0-4.5s-2.9,4.5,0,4.5Z"/><path class="cls-5" d="M83.31,192.5c2.89,0,2.9-4.5,0-4.5s-2.9,4.5,0,4.5Z"/><path class="cls-5" d="M55.26,135.87c2.9,0,2.9-4.5,0-4.5s-2.9,4.5,0,4.5Z"/><path class="cls-5" d="M125.92,161.22c2.89,0,2.9-4.5,0-4.5s-2.9,4.5,0,4.5Z"/><path class="cls-6" d="M182.54,159.28c3.87,0,3.87-6,0-6s-3.86,6,0,6Z"/><path class="cls-5" d="M127.53,202.75c2.9,0,2.9-4.5,0-4.5s-2.9,4.5,0,4.5Z"/><path class="cls-5" d="M140.48,175.78c2.89,0,2.9-4.5,0-4.5s-2.9,4.5,0,4.5Z"/><path class="cls-5" d="M31,185c2.9,0,2.9-4.5,0-4.5s-2.9,4.5,0,4.5Z"/><path class="cls-6" d="M221.92,205.12c3.86,0,3.86-6,0-6s-3.87,6,0,6Z"/><path class="cls-6" d="M233.78,157.66c3.86,0,3.87-6,0-6s-3.87,6,0,6Z"/><path class="cls-6" d="M303.89,151.19c3.86,0,3.87-6,0-6s-3.86,6,0,6Z"/><path class="cls-6" d="M326.54,176.53c3.87,0,3.87-6,0-6s-3.86,6,0,6Z"/><path class="cls-6" d="M310.37,210c3.86,0,3.86-6,0-6s-3.87,6,0,6Z"/><path class="cls-6" d="M332.48,216.44c3.86,0,3.86-6,0-6s-3.87,6,0,6Z"/><path class="cls-6" d="M288.79,224c3.86,0,3.87-6,0-6s-3.86,6,0,6Z"/><path class="cls-6" d="M251.58,222.92c3.86,0,3.87-6,0-6s-3.87,6,0,6Z"/><path class="cls-6" d="M260.75,184.08c3.86,0,3.86-6,0-6s-3.87,6,0,6Z"/><path class="cls-6" d="M232.16,185.16c3.86,0,3.87-6,0-6s-3.86,6,0,6Z"/><path class="cls-6" d="M192.25,224c3.86,0,3.87-6,0-6s-3.86,6,0,6Z"/><path class="cls-6" d="M335.17,149.57c3.86,0,3.87-6,0-6s-3.86,6,0,6Z"/><path class="cls-6" d="M157.2,223.46c3.86,0,3.86-6,0-6s-3.87,6,0,6Z"/><path class="cls-5" d="M98.41,217.85c2.9,0,2.9-4.5,0-4.5s-2.9,4.5,0,4.5Z"/><path class="cls-5" d="M66.05,218.39c2.9,0,2.9-4.5,0-4.5s-2.9,4.5,0,4.5Z"/><path class="cls-5" d="M31,221.63c2.9,0,2.9-4.5,0-4.5s-2.9,4.5,0,4.5Z"/></g></g></svg>